<svg xmlns="http://www.w3.org/2000/svg" viewBox="0 0 150.04 150.03"><title>draggable</title><g id="Capa_2" data-name="Capa 2"><g id="Capa_1-2" data-name="Capa 1"><g id="f3zRmu"><path d="M0,60Q0,33.78,0,7.56C.05,1.35,1.39,0,7.72,0Q60.18,0,112.64,0c3.63,0,7.15.45,7.23,4.86.09,4.75-3.59,5.19-7.4,5.19-32.47,0-64.95.06-97.42-.13-4.28,0-5.13,1.23-5.11,5.27.17,32,.09,64,.09,95.93,0,1.33.08,2.67,0,4-.28,2.86-1.89,4.73-4.77,4.8C2.06,120,.22,118.07.1,115c-.18-4.32-.06-8.65-.06-13Q0,81,0,60Z" style="fill:#fff"/><path d="M142.61,20Q85.17,20,27.72,20c-6.33,0-7.67,1.32-7.68,7.53q0,28.47,0,57,0,29,0,57.94c0,6.23,1.36,7.57,7.65,7.57h114.9c6,0,7.43-1.44,7.43-7.29Q150,85,150,27.34C150,21.46,148.57,20,142.61,20ZM135.5,140.09c-17-.14-34-.06-51-.06-16.66,0-33.32-.08-50,.06-3.24,0-4.62-.47-4.6-4.23q.23-51,0-101.94c0-3,.68-4,3.85-4q51.22.18,102.45,0c3.19,0,3.83,1,3.82,4q-.14,51,0,101.94C140.14,139.66,138.71,140.12,135.5,140.09Z" style="fill:#fff"/><path d="M80,57c-2,2-2.92,2.56-4.16,2.83a4.94,4.94,0,0,1-4.37-8.31c3.22-3.38,6.5-6.7,9.88-9.91,2.48-2.35,5.12-2.13,7.54.21,2.63,2.55,5.19,5.18,7.79,7.76C99,51.9,101.5,54.23,99,57.75s-5.4,1.55-9-.72c0,7.11,0,14.48,0,21,0,2.41,1.79,2,3.19,2,6,0,13.85,0,19.79,0-1-1-2.27-2.13-2.6-3.08A4.79,4.79,0,0,1,112,71.14c1.94-1.54,4.17-1.67,6,0,3.78,3.51,7.47,7.14,10.94,11,2,2.21,1.32,4.7-.64,6.73-2.88,3-5.87,5.91-8.81,8.86-2,2-4.32,3.36-7.07,1.44-2.4-1.67-2.43-3.43-1.78-5.74a4.16,4.16,0,0,1,1.65-2.31A15.85,15.85,0,0,1,114,90c-6.35,0-14.77.09-20.89,0-2.37-.06-3.2.71-3.15,3.12.14,6.12,0,13.88,0,19.92,2-2,2.1-2.21,3-2.55a4.73,4.73,0,0,1,6.11,1.87,4.4,4.4,0,0,1-.44,6c-3.31,3.52-6.72,7-10.24,10.26-2.32,2.18-4.89,1.91-7.14-.23-2.66-2.52-5.21-5.16-7.81-7.75-2.26-2.26-4.91-4.51-2.62-8.12C73.28,108.66,76,109,80,113c0-6.75-.08-14,0-20.27,0-2.29-.95-2.79-3-2.76-6.16.08-12.31,0-18.4,0H57c2,2,2.34,2.26,2.66,3.31A4.74,4.74,0,0,1,57.8,99a4.37,4.37,0,0,1-6-.29c-3.64-3.42-7.22-6.92-10.58-10.62-2.17-2.38-1.44-4.94.7-7.11,2.57-2.62,5.19-5.18,7.76-7.8,2.31-2.35,4.72-4.69,8.16-2.13,3.26,2.42,1.9,5.44-.85,8.94,7.31,0,14.25-.09,20.65,0,2.68,0,2.35-1.7,2.35-3.35Z" style="fill:#fff"/></g></g></g></svg>