<svg xmlns="http://www.w3.org/2000/svg" viewBox="0 0 475.93 390.2"><title>pip_1</title><g id="Capa_2" data-name="Capa 2"><g id="Capa_1-2" data-name="Capa 1"><g id="fVvSTV"><path d="M237.83,389.93c-63.67,0-127.34-.52-191,.27-24,.3-47.17-17.41-46.83-46.74.4-34,.1-68,.1-102Q.1,144.23.06,47c0-15.68,5-28.8,17.85-38.36a42.72,42.72,0,0,1,23-8.41C43.22.1,45.59.08,48,.08q190,0,380-.08c15.61,0,28.83,4.56,38.78,17,6.84,8.58,9.22,18.54,9.22,29.36q-.09,132.74-.07,265.46c0,13.86.44,27.81-.9,41.56-2,20.24-21.16,36.5-41.57,36.51Q335.61,390,237.83,389.93Zm192.1-58.06V58.43a13.14,13.14,0,0,0-13.14-13.14H59.06A13.14,13.14,0,0,0,45.92,58.43V331.87A13.13,13.13,0,0,0,59.06,345H416.79A13.13,13.13,0,0,0,429.93,331.87Z" style="fill:#fff"/><rect x="217.2" y="174.17" width="169.76" height="127.31" rx="13.12" ry="13.12" style="fill:#fff"/></g></g></g></svg>