<svg id="Capa_1" data-name="Capa 1" xmlns="http://www.w3.org/2000/svg" viewBox="0 0 432.56 501.11"><title>skip</title><g id="XfQXXq"><path d="M260.46,343.89h0c-3.57-4.62-1.8-9.34,3.92-10.49,8.25-1.65,16.58-3.46,24.15-4.26,80.61-8.48,155.79,41.69,184.75,113.29,26.89,66.47,9,146.74-44.23,195.32-43.09,39.36-93.67,54.83-151.2,46C239.68,678,207,660.55,179.56,633.3c-2.13-2.12-4.14-4.35-6.27-6.46-11.79-11.71-30.16-12.15-41.88-1a29.79,29.79,0,0,0-1.57,41.88,232.88,232.88,0,0,0,68.34,52.17c138.6,70.23,306.78-7.61,341-159.06,18.86-83.5-3.27-157.08-62.27-219-33.48-35.11-74.45-57.84-122-68.12-44.33-9.57-87.75-5.72-130.18,9.8" transform="translate(-113.16 -244.83)" style="fill:#fff"/></g><path d="M275.77,373.31,221.11,252.5A13,13,0,0,0,198.82,250l-83,110a13,13,0,0,0,9.39,20.86l137.66,10.84A13,13,0,0,0,275.77,373.31Z" transform="translate(-113.16 -244.83)" style="fill:#fff"/></svg>